<mxfile host="app.diagrams.net" modified="2023-05-03T15:42:27.230Z" agent="Mozilla/5.0 (Windows NT 10.0; Win64; x64) AppleWebKit/537.36 (KHTML, like Gecko) Chrome/111.0.0.0 Safari/537.36 OPR/97.0.0.0" etag="bDZ3tA8nLAwU6ibtbsOq" version="21.2.7">
  <diagram name="Seite-1" id="9afp5J6KLoDO_Q70Rgsj">
    <mxGraphModel dx="961" dy="523" grid="1" gridSize="10" guides="1" tooltips="1" connect="1" arrows="1" fold="1" page="1" pageScale="1" pageWidth="827" pageHeight="1169" math="0" shadow="0">
      <root>
        <mxCell id="0" />
        <mxCell id="1" parent="0" />
        <mxCell id="R8kYYgGdSRoQfxZ49szU-3" style="edgeStyle=orthogonalEdgeStyle;rounded=0;orthogonalLoop=1;jettySize=auto;html=1;exitX=0.5;exitY=0;exitDx=0;exitDy=0;entryX=0.5;entryY=1;entryDx=0;entryDy=0;dashed=1;dashPattern=8 8;endArrow=block;endFill=1;endSize=12;" edge="1" parent="1" source="R8kYYgGdSRoQfxZ49szU-1" target="R8kYYgGdSRoQfxZ49szU-2">
          <mxGeometry relative="1" as="geometry" />
        </mxCell>
        <mxCell id="R8kYYgGdSRoQfxZ49szU-6" style="edgeStyle=orthogonalEdgeStyle;rounded=0;orthogonalLoop=1;jettySize=auto;html=1;exitX=0;exitY=1;exitDx=0;exitDy=0;entryX=1;entryY=0.5;entryDx=0;entryDy=0;endArrow=diamondThin;endFill=1;endSize=12;" edge="1" parent="1" source="R8kYYgGdSRoQfxZ49szU-1" target="R8kYYgGdSRoQfxZ49szU-5">
          <mxGeometry relative="1" as="geometry">
            <Array as="points">
              <mxPoint x="250" y="270" />
              <mxPoint x="250" y="270" />
            </Array>
          </mxGeometry>
        </mxCell>
        <mxCell id="R8kYYgGdSRoQfxZ49szU-1" value="GameOverOnDeath" style="rounded=0;whiteSpace=wrap;html=1;" vertex="1" parent="1">
          <mxGeometry x="271" y="240" width="166" height="30" as="geometry" />
        </mxCell>
        <mxCell id="R8kYYgGdSRoQfxZ49szU-2" value="&amp;lt;&amp;lt;Interface&amp;gt;&amp;gt;&lt;br&gt;IOnDeathFunktion" style="rounded=0;whiteSpace=wrap;html=1;" vertex="1" parent="1">
          <mxGeometry x="294" y="110" width="120" height="60" as="geometry" />
        </mxCell>
        <mxCell id="R8kYYgGdSRoQfxZ49szU-4" value="+ onDeath(entity: Entity): void" style="rounded=0;whiteSpace=wrap;html=1;" vertex="1" parent="1">
          <mxGeometry x="271" y="270" width="166" height="30" as="geometry" />
        </mxCell>
        <mxCell id="R8kYYgGdSRoQfxZ49szU-5" value="Hero" style="rounded=0;whiteSpace=wrap;html=1;" vertex="1" parent="1">
          <mxGeometry x="100" y="240" width="120" height="60" as="geometry" />
        </mxCell>
        <mxCell id="R8kYYgGdSRoQfxZ49szU-8" style="edgeStyle=orthogonalEdgeStyle;rounded=0;orthogonalLoop=1;jettySize=auto;html=1;exitX=0;exitY=0.5;exitDx=0;exitDy=0;entryX=1;entryY=0;entryDx=0;entryDy=0;endArrow=diamondThin;endFill=1;endSize=12;" edge="1" parent="1" source="R8kYYgGdSRoQfxZ49szU-7" target="R8kYYgGdSRoQfxZ49szU-4">
          <mxGeometry relative="1" as="geometry">
            <Array as="points">
              <mxPoint x="470" y="270" />
              <mxPoint x="470" y="270" />
            </Array>
          </mxGeometry>
        </mxCell>
        <mxCell id="R8kYYgGdSRoQfxZ49szU-7" value="GameOverScreen" style="rounded=0;whiteSpace=wrap;html=1;" vertex="1" parent="1">
          <mxGeometry x="490" y="200" width="160" height="30" as="geometry" />
        </mxCell>
        <mxCell id="R8kYYgGdSRoQfxZ49szU-9" value="- width: int&lt;br&gt;- height: int&lt;br&gt;- exitButton: JButton&lt;br&gt;- newGameButton: JButton&lt;br&gt;- depthLabel: JLabel" style="rounded=0;whiteSpace=wrap;html=1;align=left;" vertex="1" parent="1">
          <mxGeometry x="490" y="230" width="160" height="80" as="geometry" />
        </mxCell>
        <mxCell id="R8kYYgGdSRoQfxZ49szU-10" value="+ GameOverScreen(): void" style="rounded=0;whiteSpace=wrap;html=1;align=left;" vertex="1" parent="1">
          <mxGeometry x="490" y="310" width="160" height="30" as="geometry" />
        </mxCell>
      </root>
    </mxGraphModel>
  </diagram>
</mxfile>
